<svg xmlns="http://www.w3.org/2000/svg" viewBox="0 0 680 210" width="680" height="210">
  <defs>
    <linearGradient id="gold" x1="0" y1="0" x2="1" y2="1">
      <stop offset="0" stop-color="#e6c574"/><stop offset=".5" stop-color="#c99a3f"/><stop offset="1" stop-color="#a5761f"/>
    </linearGradient>
  </defs>
  <!-- monogram -->
  <g fill="#16315f">
    <rect x="34" y="52" width="24" height="104"/>
    <rect x="20" y="46" width="52" height="12" rx="2"/>
    <rect x="20" y="150" width="52" height="12" rx="2"/>
    <rect x="150" y="52" width="24" height="70"/>
    <rect x="136" y="46" width="52" height="12" rx="2"/>
  </g>
  <g fill="url(#gold)">
    <rect x="70" y="104" width="13" height="34" rx="1.5"/>
    <rect x="87" y="90" width="13" height="48" rx="1.5"/>
    <rect x="104" y="76" width="13" height="62" rx="1.5"/>
    <rect x="121" y="62" width="13" height="76" rx="1.5"/>
  </g>
  <path d="M40 158 C 95 156, 165 150, 205 82" fill="none" stroke="#16315f" stroke-width="15" stroke-linecap="round"/>
  <path d="M203 74 l-16 10 l18 12 z" fill="#16315f"/>
  <path d="M206 84 A 50 50 0 1 0 206 152" fill="none" stroke="url(#gold)" stroke-width="26" stroke-linecap="round"/>
  <!-- wordmark -->
  <text x="288" y="108" font-family="Georgia,'Times New Roman',serif" font-size="78" font-weight="700" letter-spacing="10" fill="#16315f">HAMZA</text>
  <g stroke="#16315f" stroke-width="2"><line x1="290" y1="150" x2="330" y2="150"/><line x1="628" y1="150" x2="668" y2="150"/></g>
  <text x="479" y="158" text-anchor="middle" font-family="Georgia,'Times New Roman',serif" font-size="26" font-weight="600" letter-spacing="11" fill="#c99a3f">CONSULTANCY</text>
</svg>
